<?xml version="1.0" standalone="no"?>
<!DOCTYPE svg PUBLIC "-//W3C//DTD SVG 20010904//EN"
 "http://www.w3.org/TR/2001/REC-SVG-20010904/DTD/svg10.dtd">
<svg version="1.0" xmlns="http://www.w3.org/2000/svg"
 width="260.000000pt" height="260.000000pt" viewBox="0 0 260.000000 260.000000"
 preserveAspectRatio="xMidYMid meet">
<metadata>
Created by potrace 1.11, written by Peter Selinger 2001-2013
</metadata>
<g transform="translate(0.000000,260.000000) scale(0.100000,-0.100000)"
fill="#000000" stroke="none">
<path d="M705 1898 c-3 -7 -104 -289 -225 -626 -121 -337 -220 -615 -220 -617
0 -3 20 -5 44 -5 l43 0 70 198 70 197 275 3 276 2 38 -107 c20 -60 52 -148 70
-198 l32 -90 47 -3 c39 -3 47 0 42 12 -6 16 -424 1175 -439 1219 -9 25 -14 27
-64 27 -35 0 -56 -5 -59 -12z m184 -421 c66 -191 121 -350 121 -352 0 -3 -110
-5 -245 -5 -197 0 -245 3 -245 13 0 8 52 162 115 343 137 391 125 358 129 353
2 -2 58 -161 125 -352z"/>
<path d="M1480 1280 l0 -630 45 0 45 0 0 313 0 312 306 -312 306 -313 56 0 55
0 -322 325 c-178 179 -321 329 -319 334 2 5 141 143 310 305 l308 296 -56 0
-57 0 -293 -286 -294 -286 0 286 0 286 -45 0 -45 0 0 -630z"/>
</g>
</svg>
